<svg width="30" height="30" viewBox="0 0 30 30" fill="none" xmlns="http://www.w3.org/2000/svg">
<path d="M15 0C23.2941 0 30 6.70588 30 15C30 23.2941 23.2941 30 15 30C6.70588 30 0 23.2941 0 15C0 6.70588 6.70588 0 15 0ZM15 28.2353C22.3235 28.2353 28.2353 22.3235 28.2353 15C28.2353 7.67647 22.3235 1.76471 15 1.76471C7.67647 1.76471 1.76471 7.67647 1.76471 15C1.76471 22.3235 7.67647 28.2353 15 28.2353Z" fill="white"/>
<path d="M7.67642 13.5L15 20.8235L22.3235 13.5L23.5588 14.7353L15 23.2941L6.44113 14.7353L7.67642 13.5Z" fill="white"/>
<path d="M15.8823 22.0588H14.1176L14.1176 7.05884H15.8823L15.8823 22.0588Z" fill="white"/>
</svg>
