<svg width="158" height="164" viewBox="0 0 158 164" fill="none" xmlns="http://www.w3.org/2000/svg">
<path d="M37.2108 57.9756L49.219 45.9675M37.2108 57.9756L41.0316 65.6172C41.0795 65.7217 41.1564 65.8103 41.2532 65.8724C41.3499 65.9345 41.4625 65.9675 41.5774 65.9675C41.6924 65.9675 41.805 65.9345 41.9017 65.8724C41.9985 65.8103 42.0754 65.7217 42.1233 65.6172L49.219 45.9675M37.2108 57.9756L29.5693 54.1549C29.4648 54.107 29.3762 54.0301 29.3141 53.9333C29.252 53.8365 29.219 53.724 29.219 53.609C29.219 53.4941 29.252 53.3815 29.3141 53.2847C29.3762 53.188 29.4648 53.1111 29.5693 53.0632L49.219 45.9675" stroke="#6319CD" stroke-width="2" stroke-linecap="round" stroke-linejoin="round"/>
<path d="M29.7192 64.4671C13.7192 81.9671 2.21899 129.468 51.2413 133.555C94.1902 137.137 26.219 47.9675 47.2192 112.467C60.6226 153.634 110.219 30.9675 156.719 57.4673" stroke="#6319CD" stroke-width="1.5"/>
</svg>
