<svg width="86" height="81" viewBox="0 0 86 81" fill="none" xmlns="http://www.w3.org/2000/svg">
<g filter="url(#filter0_f_88_107)">
<path d="M72.6278 50.6141C68.1273 61.114 46.6273 63.614 46.6273 63.614C46.6273 63.614 24.1273 69.114 11.6278 50.6141C6.22237 42.6139 6.62695 29.6139 36.1276 35.614C57.8746 40.0371 74.6273 37.614 72.6278 50.6141Z" fill="#160035" fill-opacity="0.72"/>
</g>
<path d="M74.6278 46.6141C70.1273 57.114 48.6273 59.614 48.6273 59.614C48.6273 59.614 26.1273 65.114 13.6278 46.6141C8.22237 38.6139 8.62695 25.6139 38.1276 31.614C59.8746 36.0371 76.6273 33.614 74.6278 46.6141Z" fill="#8835FF" fill-opacity="0.45"/>
<path d="M40.6683 14.8307C45.7263 15.7082 47.9522 12.912 53.8891 13.885C56.7886 14.376 58.4518 15.4439 58.3662 16.4582C58.2917 17.4303 56.7303 17.6964 54.9634 17.3677C52.529 16.9988 51.7468 15.8468 51.788 15.0011C50.0101 14.7145 49.5148 15.3959 49.4554 15.9663C49.3587 17.0228 51.2605 18.559 54.9855 19.1766C59.218 19.9274 60.9919 18.6803 61.0855 16.9469C61.2164 14.7274 58.5102 12.1235 52.6689 11.1304C45.1766 9.88409 44.344 13.2266 39.286 12.3491C37.2121 11.9848 36.1922 11.2211 36.1912 10.3643C36.2748 9.52981 37.347 9.40568 38.5531 9.63226C39.6746 9.83663 40.9411 10.3495 41.4868 10.8535C42.0184 10.7226 42.2429 10.5562 42.2358 10.2388C42.266 9.43529 40.8324 8.69819 38.8853 8.36717C35.118 7.73846 34.6861 9.38307 34.6247 10.1333C34.5693 12.2374 37.0701 14.2464 40.6683 14.8307ZM63.2542 29.6874C58.4106 29.5423 52.3982 28.6847 45.3791 26.8414C38.233 24.9648 32.5972 22.6733 28.2852 20.5042C24.5027 18.3839 22.603 16.6679 22.1519 15.2873C21.8348 18.0439 21.8358 20.7939 22.0815 23.4729C20.9006 23.839 19.7066 24.427 18.584 25.2591C16.4457 26.8613 15.1067 29.034 14.6245 31.3866C14.1422 33.7393 14.7856 35.9367 16.2162 37.8901C17.7314 39.8657 19.6503 40.8204 22.0867 41.0095C23.0079 41.1162 24.1556 40.8766 25.11 40.8568C23.2072 40.3571 21.7665 39.3026 20.4919 37.6156C19.0905 35.8952 18.3405 33.7599 18.6515 31.5426C18.7602 29.4075 19.6814 27.6209 21.255 26.2761C21.5973 26.0054 21.9174 25.819 22.2799 25.6437C22.4933 27.4127 22.8558 29.1307 23.2716 30.8176C24.3075 33.9295 25.4744 36.7152 26.5547 39.6585C26.9282 41.3343 27.048 42.9435 27.0098 44.4661C27.7306 46.3683 29.0807 47.94 30.9553 49.0633C33.2175 50.604 35.7505 51.6299 38.4144 52.3294L38.7104 52.4072C41.3743 53.1067 44.2758 53.4179 47.0767 53.2519C49.1455 53.119 51.0292 52.4867 52.6561 51.1109L52.783 51.1442C53.4112 49.9568 54.2971 48.4766 55.4035 47.1894C57.7906 45.1567 60.1756 43.3037 62.6069 41.1023C66.0399 37.4961 68.9092 33.1108 71.1482 28.1993C69.928 29.2312 67.4191 29.8345 63.2542 29.6874ZM29.2486 16.8354C33.5163 19.1733 39.1965 21.296 46.2157 23.1393C53.3617 25.0159 59.2361 25.8825 64.0908 25.9853C69.2102 26.1126 71.9345 25.2052 72.2999 23.8137C72.5768 22.7594 71.7744 21.5119 70.0709 20.2532C70.4162 20.6594 70.6327 21.2121 70.4998 21.7181C70.1122 23.1941 67.6033 23.7974 62.9511 23.6124C58.6593 23.432 53.2499 22.6876 46.9073 21.022C40.7761 19.4119 35.4875 17.3469 31.7766 15.4708C27.825 13.3061 25.883 11.579 26.2595 10.1453C26.4256 9.51274 26.8545 9.08444 27.8552 8.71615C24.9144 9.07082 23.2976 9.54777 22.9543 10.855C22.6935 12.3643 24.6739 14.462 29.2486 16.8354Z" fill="black"/>
<path d="M20.9585 26.0806C20.9585 28.8421 18.7199 31.0806 15.9585 31.0806C13.1971 31.0806 10.9585 28.8421 10.9585 26.0806C10.9585 23.3192 13.1971 21.0806 15.9585 21.0806C18.7199 21.0806 20.9585 23.3192 20.9585 26.0806Z" fill="#6319CD" fill-opacity="0.5"/>
<path d="M36.9585 10.0807C36.9585 11.7375 35.6154 13.0807 33.9585 13.0807C32.3016 13.0807 30.9585 11.7375 30.9585 10.0807C30.9585 8.4238 32.3016 7.08066 33.9585 7.08066C35.6154 7.08066 36.9585 8.4238 36.9585 10.0807Z" fill="#BD8EFF" fill-opacity="0.45"/>
<path d="M68.9585 16.5807C68.9585 17.4091 68.2869 18.0807 67.4585 18.0807C66.6301 18.0807 65.9585 17.4091 65.9585 16.5807C65.9585 15.7523 66.6301 15.0807 67.4585 15.0807C68.2869 15.0807 68.9585 15.7523 68.9585 16.5807Z" fill="#C49BFF" fill-opacity="0.35"/>
<path d="M55.9585 32.0807C55.9585 34.2898 54.1676 36.0807 51.9585 36.0807C49.7494 36.0807 47.9585 34.2898 47.9585 32.0807C47.9585 29.8715 49.7494 28.0807 51.9585 28.0807C54.1676 28.0807 55.9585 29.8715 55.9585 32.0807Z" fill="#6319CD" fill-opacity="0.65"/>
<path d="M63.9585 50.5807C63.9585 51.9614 62.8392 53.0807 61.4585 53.0807C60.0778 53.0807 58.9585 51.9614 58.9585 50.5807C58.9585 49.2 60.0778 48.0807 61.4585 48.0807C62.8392 48.0807 63.9585 49.2 63.9585 50.5807Z" fill="#230055"/>
<path d="M26.9585 49.5807C26.9585 51.5137 25.3915 53.0807 23.4585 53.0807C21.5255 53.0807 19.9585 51.5137 19.9585 49.5807C19.9585 47.6477 21.5255 46.0807 23.4585 46.0807C25.3915 46.0807 26.9585 47.6477 26.9585 49.5807Z" fill="#230055" fill-opacity="0.75"/>
<defs>
<filter id="filter0_f_88_107" x="4.9585" y="30.0806" width="71.8313" height="38.2981" filterUnits="userSpaceOnUse" color-interpolation-filters="sRGB">
<feFlood flood-opacity="0" result="BackgroundImageFix"/>
<feBlend mode="normal" in="SourceGraphic" in2="BackgroundImageFix" result="shape"/>
<feGaussianBlur stdDeviation="2" result="effect1_foregroundBlur_88_107"/>
</filter>
</defs>
</svg>
