<svg width="132" height="62" viewBox="0 0 132 62" fill="none" xmlns="http://www.w3.org/2000/svg">
<rect width="132" height="45.2413" fill="#6319CD"/>
<path d="M64.7911 61.4885L56.7266 41.3521L72.7986 41.3319L64.7911 61.4885Z" fill="#6319CD"/>
<path d="M24.6914 25.6621L24.6846 26.4756C24.6846 26.8174 24.6891 27.3574 24.6982 28.0957C24.6344 28.1823 24.1286 28.2256 23.1807 28.2256C22.2327 28.2256 21.3851 28.2119 20.6377 28.1846C20.6286 28.1755 20.5853 28.1185 20.5078 28.0137V26.9199L20.5215 24.8213C20.5215 24.6162 20.4987 24.4954 20.4531 24.459C20.4076 24.4225 20.2686 24.4043 20.0361 24.4043H19.9404C19.5075 24.4043 19.1657 24.4248 18.915 24.4658V25.4229L18.9014 28.0684C18.833 28.1413 18.2611 28.1777 17.1855 28.1777H16.8574C15.9277 28.1777 15.251 28.1641 14.8271 28.1367C14.7406 28.1094 14.6973 27.7858 14.6973 27.166L14.7383 25.6553L14.8066 19.5303V19.2021C14.8112 19.1338 14.8135 18.8968 14.8135 18.4912C14.8135 18.0811 14.8385 17.8213 14.8887 17.7119H14.9229C15.2236 17.721 15.4447 17.7256 15.5859 17.7256H16.3516L17.1787 17.7119H17.4385C18.2132 17.7119 18.6644 17.8008 18.792 17.9785C18.8558 18.0697 18.8877 18.2087 18.8877 18.3955L18.8672 19.25V19.5713L18.8262 20.9248C18.8262 21.0251 18.833 21.1572 18.8467 21.3213H19.2705L19.4414 21.3281H19.9883C20.1888 21.3281 20.3939 21.3122 20.6035 21.2803V19.6602L20.6104 19.1543V18.6826L20.6035 18.5732V18.2246C20.6035 17.9557 20.6149 17.7917 20.6377 17.7324C20.665 17.6732 20.7311 17.6436 20.8359 17.6436L20.9727 17.6504H21.417L22.8936 17.6094C24.0693 17.6094 24.6572 17.7028 24.6572 17.8896V18.375L24.6641 18.5391L24.6572 18.8945V19.9541L24.6914 24.3154C24.6914 24.3883 24.6868 24.484 24.6777 24.6025V24.9307C24.6777 25.0765 24.6823 25.2679 24.6914 25.5049V25.6621ZM29.0869 19.6191C29.292 19.5599 29.5107 19.5303 29.7432 19.5303C29.9756 19.5303 30.1966 19.5394 30.4062 19.5576L30.6934 19.585C31.1445 19.626 31.4909 19.6784 31.7324 19.7422V19.7354L31.876 19.7969C32.833 20.0931 33.5781 20.5443 34.1113 21.1504V21.1436C34.2344 21.2894 34.3848 21.5104 34.5625 21.8066C34.7448 22.0983 34.8359 22.3011 34.8359 22.415L34.8906 22.5996L34.9248 22.7979C35.0114 23.1032 35.0547 23.3584 35.0547 23.5635C35.0547 23.7686 35.057 23.9258 35.0615 24.0352H29.4287V24.2607C29.4561 24.3656 29.4697 24.4749 29.4697 24.5889C29.4697 24.7028 29.4697 24.7939 29.4697 24.8623C29.4743 24.9261 29.4811 24.9899 29.4902 25.0537C29.4993 25.113 29.5039 25.1631 29.5039 25.2041C29.5085 25.2406 29.5199 25.2861 29.5381 25.3408C29.5563 25.391 29.5654 25.4251 29.5654 25.4434C29.57 25.4616 29.5837 25.498 29.6064 25.5527C29.6338 25.6074 29.6543 25.6598 29.668 25.71C29.6862 25.7555 29.7181 25.8011 29.7637 25.8467V25.8398L29.8389 25.9834C29.9255 26.0791 30.0439 26.1475 30.1943 26.1885C30.445 26.1338 30.6136 26.0039 30.7002 25.7988C30.7913 25.5938 30.8665 25.3385 30.9258 25.0332C31.0898 24.9876 31.3223 24.9648 31.623 24.9648L32.498 24.9854H35.0205C34.9658 25.5413 34.8018 26.0518 34.5283 26.5166H34.5352C34.2982 26.8903 33.929 27.2116 33.4277 27.4805C32.0104 27.9772 31.1012 28.2256 30.7002 28.2256C30.6273 28.2256 30.568 28.221 30.5225 28.2119H30.3652L30.3037 28.2188H30.2422C30.2057 28.2188 30.1602 28.2142 30.1055 28.2051C30.0599 28.2324 30.0052 28.2461 29.9414 28.2461L29.3467 28.1777C29.3148 28.1914 29.2487 28.1982 29.1484 28.1982C29.0527 28.1982 28.7975 28.1367 28.3828 28.0137V28.0205L28.2188 27.9727L28.0547 27.918C27.3711 27.7174 26.7855 27.3665 26.2979 26.8652C25.8102 26.3594 25.498 25.7715 25.3613 25.1016C25.3477 25.0195 25.3226 24.8965 25.2861 24.7324C25.2497 24.5638 25.2314 24.4499 25.2314 24.3906V24.0625C25.2314 23.985 25.2337 23.9258 25.2383 23.8848V23.7822C25.2383 22.8161 25.5254 21.9821 26.0996 21.2803C26.6738 20.5739 27.444 20.0771 28.4102 19.79L28.5742 19.7422C28.8158 19.7012 28.9889 19.6579 29.0938 19.6123L29.0869 19.6191ZM31.1309 23.1328L31.2744 23.0439C31.1969 22.5518 31.124 22.2373 31.0557 22.1006C30.9873 21.9593 30.9212 21.8385 30.8574 21.7383C30.7389 21.5469 30.5817 21.4512 30.3857 21.4512C30.1943 21.4512 30.0303 21.5469 29.8936 21.7383C29.652 22.0755 29.4993 22.5495 29.4355 23.1602C29.7272 23.1419 29.9961 23.1328 30.2422 23.1328H31.1309ZM35.8203 17.2676L37.5566 17.2607C38.0853 17.2607 38.9056 17.2653 40.0176 17.2744V28.0068H35.834L35.8203 17.2676ZM41.084 17.2676L42.8203 17.2607C43.349 17.2607 44.1693 17.2653 45.2812 17.2744V28.0068H41.0977L41.084 17.2676ZM56.2666 23.8643C56.2575 23.9098 56.2529 23.9372 56.2529 23.9463V24.001C56.2393 24.7529 56.0661 25.4297 55.7334 26.0312H55.7402C55.2754 26.7422 54.626 27.2891 53.792 27.6719C52.9626 28.0547 52.1445 28.2461 51.3379 28.2461C50.5312 28.2461 49.8613 28.1663 49.3281 28.0068C48.7995 27.8519 48.3096 27.624 47.8584 27.3232C47.4072 27.0225 47.0723 26.7331 46.8535 26.4551C46.334 25.7988 46.0742 24.8714 46.0742 23.6729C46.0742 23.6318 46.0811 23.5977 46.0947 23.5703V23.4609C46.0811 23.4427 46.0742 23.4245 46.0742 23.4062L46.0879 23.3311H46.0811C46.1676 22.5335 46.3363 22.0094 46.5869 21.7588C46.5869 21.7087 46.6188 21.6517 46.6826 21.5879V21.5947L46.7852 21.4307C47.3229 20.7425 47.9382 20.2708 48.6309 20.0156L48.8701 19.9268C49.1709 19.7809 49.5924 19.6715 50.1348 19.5986L50.3535 19.5781C50.3854 19.5736 50.4492 19.569 50.5449 19.5645C50.6452 19.5599 50.7158 19.5508 50.7568 19.5371L51.0508 19.5439C51.0645 19.5394 51.0804 19.5371 51.0986 19.5371C51.1169 19.5371 51.1374 19.5394 51.1602 19.5439L51.1533 19.5371C51.1807 19.5508 51.2217 19.5576 51.2764 19.5576C51.2946 19.5394 51.3265 19.5303 51.3721 19.5303C52.361 19.5303 53.2018 19.7331 53.8945 20.1387L54.0312 20.2002C55.5215 20.9157 56.2666 22.137 56.2666 23.8643ZM52.0146 23.9053C51.9964 22.9984 51.8665 22.3854 51.625 22.0664C51.5247 21.9342 51.4017 21.8682 51.2559 21.8682C51.1146 21.8682 50.9893 21.9525 50.8799 22.1211C50.7705 22.2852 50.6816 22.5449 50.6133 22.9004C50.5495 23.2559 50.5176 23.5726 50.5176 23.8506C50.5176 24.124 50.529 24.361 50.5518 24.5615C50.5791 24.7575 50.6178 24.9671 50.668 25.1904C50.7181 25.4092 50.7956 25.5938 50.9004 25.7441C51.0052 25.89 51.1237 25.9629 51.2559 25.9629C51.7617 25.9629 52.0146 25.277 52.0146 23.9053ZM66.6025 17.7051L67.792 17.6982H70.4512C70.4694 17.6982 70.4831 17.7028 70.4922 17.7119L70.7383 19.3115C70.8021 19.7764 70.9046 20.4782 71.0459 21.417C71.1917 22.3512 71.2829 22.9414 71.3193 23.1875L71.374 23.5566H71.6338C71.7523 22.2396 71.9756 20.5055 72.3037 18.3545L72.3311 18.1973C72.3356 18.1608 72.3379 18.1107 72.3379 18.0469C72.3424 17.9375 72.363 17.8486 72.3994 17.7803C72.4404 17.7074 72.5612 17.6709 72.7617 17.6709C74.2246 17.6709 75.2933 17.7119 75.9678 17.7939C75.986 17.8122 76.0042 17.8646 76.0225 17.9512C75.9131 18.4616 75.7331 19.2568 75.4824 20.3369C75.2318 21.417 75.0449 22.2396 74.9219 22.8047L74.8672 23.0576C74.8581 23.085 74.8285 23.167 74.7783 23.3037C74.7327 23.4404 74.7122 23.5361 74.7168 23.5908L74.2383 25.7578L74.0195 26.8311C73.8965 27.4372 73.8122 27.8724 73.7666 28.1367L73.7324 28.123C73.4134 28.1413 72.9281 28.1504 72.2764 28.1504H71.21L70.8408 28.1436C70.3258 28.1436 69.8564 28.1527 69.4326 28.1709C69.3916 28.1709 69.3255 27.8109 69.2344 27.0908C69.1432 26.3708 69.0931 25.9857 69.084 25.9355L69.0225 25.5938C68.8766 24.6367 68.7308 23.6273 68.585 22.5654L68.332 22.5586C68.0723 23.8984 67.8421 25.5254 67.6416 27.4395C67.5915 27.9408 67.4935 28.2028 67.3477 28.2256C66.696 28.2028 66.0648 28.1914 65.4541 28.1914C64.8434 28.1914 64.0596 28.2074 63.1025 28.2393C62.9704 28.1344 62.8701 27.8587 62.8018 27.4121L62.7607 27.1455C62.5876 26.2249 62.2275 24.5296 61.6807 22.0596L61.5371 21.3965C61.4824 21.1322 61.3685 20.6104 61.1953 19.8311C61.0221 19.0472 60.874 18.3522 60.751 17.7461C60.7555 17.7096 60.7874 17.6777 60.8467 17.6504C60.9515 17.6641 61.0632 17.6709 61.1816 17.6709H61.2637L61.9131 17.6504L62.8564 17.6299C63.1663 17.6299 63.4056 17.6367 63.5742 17.6504H64.0049C64.0459 17.6504 64.1211 17.6549 64.2305 17.6641H64.3262C64.472 17.6641 64.6771 18.8034 64.9414 21.082C65.0599 22.112 65.1305 22.7135 65.1533 22.8867L65.2012 23.2764L65.4678 23.2832C65.6364 22.2259 65.8232 20.9909 66.0283 19.5781C66.0283 19.4141 66.0648 19.0882 66.1377 18.6006C66.2106 18.113 66.2858 17.8122 66.3633 17.6982C66.4134 17.7028 66.4932 17.7051 66.6025 17.7051ZM85.5107 23.8643C85.5016 23.9098 85.4971 23.9372 85.4971 23.9463V24.001C85.4834 24.7529 85.3102 25.4297 84.9775 26.0312H84.9844C84.5195 26.7422 83.8701 27.2891 83.0361 27.6719C82.2067 28.0547 81.3887 28.2461 80.582 28.2461C79.7754 28.2461 79.1055 28.1663 78.5723 28.0068C78.0436 27.8519 77.5537 27.624 77.1025 27.3232C76.6514 27.0225 76.3164 26.7331 76.0977 26.4551C75.5781 25.7988 75.3184 24.8714 75.3184 23.6729C75.3184 23.6318 75.3252 23.5977 75.3389 23.5703V23.4609C75.3252 23.4427 75.3184 23.4245 75.3184 23.4062L75.332 23.3311H75.3252C75.4118 22.5335 75.5804 22.0094 75.8311 21.7588C75.8311 21.7087 75.863 21.6517 75.9268 21.5879V21.5947L76.0293 21.4307C76.5671 20.7425 77.1823 20.2708 77.875 20.0156L78.1143 19.9268C78.415 19.7809 78.8366 19.6715 79.3789 19.5986L79.5977 19.5781C79.6296 19.5736 79.6934 19.569 79.7891 19.5645C79.8893 19.5599 79.96 19.5508 80.001 19.5371L80.2949 19.5439C80.3086 19.5394 80.3245 19.5371 80.3428 19.5371C80.361 19.5371 80.3815 19.5394 80.4043 19.5439L80.3975 19.5371C80.4248 19.5508 80.4658 19.5576 80.5205 19.5576C80.5387 19.5394 80.5706 19.5303 80.6162 19.5303C81.6051 19.5303 82.446 19.7331 83.1387 20.1387L83.2754 20.2002C84.7656 20.9157 85.5107 22.137 85.5107 23.8643ZM81.2588 23.9053C81.2406 22.9984 81.1107 22.3854 80.8691 22.0664C80.7689 21.9342 80.6458 21.8682 80.5 21.8682C80.3587 21.8682 80.2334 21.9525 80.124 22.1211C80.0146 22.2852 79.9258 22.5449 79.8574 22.9004C79.7936 23.2559 79.7617 23.5726 79.7617 23.8506C79.7617 24.124 79.7731 24.361 79.7959 24.5615C79.8232 24.7575 79.862 24.9671 79.9121 25.1904C79.9622 25.4092 80.0397 25.5938 80.1445 25.7441C80.2493 25.89 80.3678 25.9629 80.5 25.9629C81.0059 25.9629 81.2588 25.277 81.2588 23.9053ZM86.2012 19.8174L88.0195 19.8105H89.8379L89.9883 20.7266C90.0931 21.3691 90.1546 21.7337 90.1729 21.8203H90.4121C90.5807 21.041 90.9043 20.4873 91.3828 20.1592L91.6562 20.002C91.6699 19.9746 91.752 19.9245 91.9023 19.8516L91.875 19.8584L92.0322 19.7969C92.4788 19.6191 92.8639 19.528 93.1875 19.5234C93.2559 19.5234 93.3014 19.528 93.3242 19.5371H93.5771V23.3516C93.4814 23.3288 93.3311 23.3174 93.126 23.3174C92.9209 23.3174 92.709 23.347 92.4902 23.4062C92.276 23.4655 92.0938 23.543 91.9434 23.6387C91.7975 23.7298 91.6699 23.8483 91.5605 23.9941C91.2233 24.4453 91.0547 25.1221 91.0547 26.0244L91.0684 26.7422V28L88.6348 28.0068H86.208L86.2012 23.9258V19.8174ZM99.9619 19.8789L99.9824 19.1885V17.377H102.02L104.07 17.3701C104.07 17.3701 104.073 20.9271 104.077 28.041H100.591C100.495 27.8861 100.424 27.7425 100.379 27.6104L100.105 27.1318C99.668 27.5192 99.2555 27.8018 98.8682 27.9795C98.4854 28.1572 98.0137 28.2461 97.4531 28.2461C96.5462 28.2461 95.7829 27.8861 95.1631 27.166C94.5433 26.446 94.2334 25.5231 94.2334 24.3975C94.2334 23.6546 94.3177 22.9528 94.4863 22.292C94.6686 21.654 94.9626 21.0592 95.3682 20.5078C95.7738 19.9518 96.3024 19.6374 96.9541 19.5645L97.0566 19.5713L97.6377 19.5303C98.1937 19.5303 98.8249 19.7741 99.5312 20.2617L99.6748 20.3506L99.668 20.3438C99.7728 20.4121 99.8389 20.4622 99.8662 20.4941L100.078 20.3984C100.001 20.166 99.9619 20.0065 99.9619 19.9199V19.8789ZM98.499 24.083L98.4922 24.3223V24.5137C98.4922 24.7643 98.54 25.0218 98.6357 25.2861L98.6289 25.2793C98.6608 25.416 98.752 25.5915 98.9023 25.8057C99.0527 26.0153 99.2054 26.1201 99.3604 26.1201C99.4196 26.1201 99.4674 26.1087 99.5039 26.0859C99.9779 25.8809 100.215 25.2428 100.215 24.1719C100.215 23.429 100.092 22.8366 99.8457 22.3945C99.6953 22.1211 99.529 21.9844 99.3467 21.9844C99.1689 21.9844 99.0117 22.1211 98.875 22.3945C98.6243 22.8913 98.499 23.4541 98.499 24.083ZM105.232 18.5732L105.185 17.7461C105.185 17.6914 105.551 17.6549 106.285 17.6367H106.668L107.105 17.6025C107.383 17.5798 107.942 17.5638 108.78 17.5547C109.104 17.5547 109.27 17.6048 109.279 17.7051L109.184 18.9902C108.988 21.3509 108.828 23.0736 108.705 24.1582C108.696 24.2448 108.482 24.2881 108.062 24.2881H107.652L107.516 24.2812L107.235 24.2881H106.962L106.388 24.2949H106.176L106.073 24.3018H105.807C105.652 24.2334 105.57 23.9622 105.561 23.4883C105.561 23.2559 105.558 23.1123 105.554 23.0576L105.485 22.1689C105.481 22.1143 105.469 21.9798 105.451 21.7656C105.433 21.5514 105.422 21.3896 105.417 21.2803L105.232 18.5732ZM108.938 25.874C108.938 25.8786 108.935 25.8877 108.931 25.9014C108.931 25.9105 108.931 26.2158 108.931 26.8174C108.931 27.4189 108.94 27.8382 108.958 28.0752C108.908 28.1208 108.461 28.1595 107.618 28.1914H107.481L106.101 28.2188H106.046C105.8 28.2279 105.62 28.2324 105.506 28.2324L105.438 28.1299L105.321 28.0205C105.321 27.4554 105.34 26.9382 105.376 26.4688C105.417 25.9948 105.442 25.7578 105.451 25.7578C107.074 25.7578 108.06 25.7646 108.411 25.7783C108.762 25.7874 108.938 25.8193 108.938 25.874Z" fill="white"/>
</svg>
