<svg width="38" height="40" viewBox="0 0 38 40" fill="none" xmlns="http://www.w3.org/2000/svg">
<path d="M25.0838 17.2347L25.0991 17.2889C25.2371 17.7759 25.3845 18.2599 25.5412 18.7406L25.0838 17.2347ZM25.0838 17.2347L25.069 17.289C24.9454 17.7448 24.782 18.2716 24.579 18.8694L24.5534 18.9445L24.5534 18.9446L23.7859 21.2255L23.779 21.2461H23.8007H26.3611H26.3828L26.3759 21.2255L25.6084 18.9447L25.6084 18.9446L25.5412 18.7406L25.0838 17.2347ZM22.0461 30.0977H15.9695V10.8901H34.2151V30.0977H29.6587H29.643L29.6431 30.1134L29.6459 34.8947L22.0545 30.1002L22.056 30.0977H22.0461ZM14.4151 24.6538L8.35409 28.4818L8.35693 23.7004L8.35694 23.6848H8.34131H3.78485V4.47717H22.0305V9.25564H19.0156V7.66805V7.65243H19H6.8154H6.79978V7.66805V20.4939V20.5096H6.8154H14.4151V24.6538ZM31.2002 14.081V14.0654H31.1846H19H18.9843V14.081V26.9069V26.9226H19H31.1846H31.2002V26.9069V14.081ZM26.8143 22.5425L26.8107 22.5319H26.7996H23.3686H23.3574L23.3538 22.5425L22.4223 25.288H20.8497L24.2181 15.6998H25.976L29.4215 25.288H27.7523L26.8143 22.5425ZM10.3646 12.5209L10.2565 12.0471L11.7148 11.7174C11.9475 12.8481 12.3758 13.864 13.0026 14.7713L13.0174 14.7927L13.0293 14.7695C13.5967 13.6657 13.9263 12.4338 14.0177 11.0664L14.0189 11.0497H14.0022H8.33259V9.4777H12.1246H12.1403V9.46208V8.67606H13.632V9.462V9.47763H13.6476H14.4151L14.4152 15.3713C14.3094 15.5855 14.1963 15.7956 14.076 16.0012L14.0697 16.012L14.0789 16.0205C14.1886 16.1223 14.3007 16.2212 14.4151 16.3171V18.2527C13.9578 17.9366 13.5451 17.6114 13.177 17.2773L13.1654 17.2667L13.1549 17.2784C12.1178 18.4314 10.7046 19.2492 8.93281 19.7338C8.93277 19.7338 8.93273 19.7338 8.93269 19.7338L8.4941 19.8449L8.1702 18.3107C9.89708 17.9044 11.2039 17.1834 12.1136 16.1502L12.1221 16.1405L12.1142 16.1303C11.2874 15.0641 10.7033 13.8588 10.3647 12.5211C10.3647 12.521 10.3646 12.521 10.3646 12.5209Z" fill="white" stroke="#6319CD" stroke-width="0.03125"/>
<line x1="1.19229" y1="26.6154" x2="1.19229" y2="0.999969" stroke="#6319CD"/>
<line x1="24.0385" y1="8.61536" x2="24.0385" y2="0.999971" stroke="#6319CD"/>
<line x1="32.1538" y1="32.3462" x2="37" y2="32.3462" stroke="#6319CD"/>
<line x1="13.4615" y1="32.3462" x2="21.0769" y2="32.3462" stroke="#6319CD"/>
<line x1="1" y1="26.1154" x2="6.53846" y2="26.1154" stroke="#6319CD"/>
<line x1="13.9615" y1="27.3076" x2="13.9615" y2="32.8461" stroke="#6319CD"/>
<line x1="6.34616" y1="25.9231" x2="6.34616" y2="32.8462" stroke="#6319CD"/>
<line x1="13.6876" y1="27.7107" x2="6.14201" y2="33.2492" stroke="#6319CD"/>
<line x1="31.9615" y1="32.1538" x2="31.9615" y2="39.7692" stroke="#6319CD"/>
<line x1="31.8888" y1="39.5009" x2="20.8119" y2="32.5778" stroke="#6319CD"/>
<line x1="23.8462" y1="8.11536" x2="37" y2="8.11536" stroke="#6319CD"/>
<line x1="36.8077" y1="7.9231" x2="36.8077" y2="32.1539" stroke="#6319CD"/>
<line x1="1" y1="1.19238" x2="23.8462" y2="1.19238" stroke="#6319CD"/>
</svg>
