<svg width="184" height="44" viewBox="0 0 184 44" fill="none" xmlns="http://www.w3.org/2000/svg">
<path d="M171.5 22.25L184 28.2169V13.7831L171.5 19.75V22.25ZM0 22.25L172.75 22.25V19.75L0 19.75L0 22.25Z" fill="#8835FF"/>
<path d="M79 43.25C79.6904 43.25 80.25 42.6904 80.25 42C80.25 41.3096 79.6904 40.75 79 40.75V43.25ZM0 43.25H79V40.75H0L0 43.25Z" fill="#8835FF"/>
<path d="M128 3.25C128.69 3.25 129.25 2.69036 129.25 2C129.25 1.30964 128.69 0.75 128 0.75V3.25ZM0 3.25H128V0.75H0L0 3.25Z" fill="#8835FF"/>
</svg>
