<svg width="223" height="164" viewBox="0 0 223 164" fill="none" xmlns="http://www.w3.org/2000/svg">
<path d="M8.95209 80.7612C18.4517 -16.2389 105.21 93.276 102.951 54.2613C97.4514 -40.7388 186.451 75.2613 208.451 103.261C227.935 128.058 -8.0487 33.7613 31.9513 132.761" stroke="#6319CD" stroke-width="11"/>
<path d="M38.4513 92.2614V61.3239L50.4825 73.3551L62.5138 61.3239V92.2614H55.6388V78.5114L50.4825 83.6676L45.3263 78.5114V92.2614H38.4513ZM77.9825 88.8239L84.8575 81.9489L77.9825 75.0739L71.1075 81.9489L77.9825 88.8239ZM77.9825 99.1364L60.795 81.9489L77.9825 64.7614L95.17 81.9489L77.9825 99.1364ZM102.045 92.2614L90.0138 80.2301V64.7614H96.8888V76.7926L105.483 85.3864H110.639V64.7614H117.514V92.2614H102.045ZM145.014 95.6989L127.826 78.5114V92.2614H120.951V61.3239L138.139 78.5114V64.7614H145.014V95.6989ZM162.201 106.011V64.7614H169.076V75.0739L179.389 64.7614H189.701L175.951 78.5114L179.389 81.9489V92.2614H172.514V85.3864L169.076 81.9489V99.1364L162.201 106.011Z" fill="white"/>
</svg>
