<svg width="106" height="91" viewBox="0 0 106 91" fill="none" xmlns="http://www.w3.org/2000/svg">
<g filter="url(#filter0_f_88_137)">
<path d="M64.6816 58.7933C61.1354 67.0668 44.1943 69.0367 44.1943 69.0367C44.1943 69.0367 26.4653 73.3704 16.6162 58.7933C12.357 52.4895 12.6758 42.2461 35.9211 46.9739C53.0567 50.4591 66.2571 48.5498 64.6816 58.7933Z" fill="#160035" fill-opacity="0.72"/>
</g>
<path d="M66.2575 55.6414C62.7113 63.915 45.7703 65.8848 45.7703 65.8848C45.7703 65.8848 28.0412 70.2186 18.1921 55.6414C13.9329 49.3377 14.2517 39.0942 37.497 43.8221C54.6327 47.3073 67.833 45.398 66.2575 55.6414Z" fill="#8835FF" fill-opacity="0.45"/>
<path d="M26.711 12.6079C29.2273 12.6072 31.682 13.4053 33.7368 14.892C35.7916 16.3788 37.3454 18.4812 38.1842 20.9096C42.3563 31.5855 42.1211 47.475 42.1211 47.475C42.1211 50.5574 40.9248 53.5136 38.7954 55.6932C36.6659 57.8728 33.7778 59.0973 30.7663 59.0973C27.7548 59.0973 24.8666 57.8728 22.7372 55.6932C20.6077 53.5136 19.4114 50.5574 19.4114 47.475C19.4114 38.0891 17.2962 33.299 16.4819 31.8014C15.2141 29.7929 14.5414 27.4517 14.5451 25.0604C14.5451 21.7578 15.8268 18.5905 18.1084 16.2551C20.3899 13.9198 23.4844 12.6079 26.711 12.6079ZM28.2358 23.3569L27.6129 23.1593C27.419 23.0976 27.2408 22.9929 27.0911 22.8525C26.9413 22.7122 26.8237 22.5397 26.7467 22.3474L25.8999 20.2189C25.7426 19.8526 25.4523 19.5632 25.0904 19.4119C24.7286 19.2606 24.3234 19.2591 23.9605 19.4077C23.5976 19.5564 23.3053 19.8436 23.1454 20.2087C22.9854 20.5738 22.9704 20.9883 23.1034 21.3645L23.9485 23.4914C24.0484 23.7437 24.082 24.0183 24.0462 24.288C24.0103 24.5577 23.9062 24.8131 23.7441 25.0289L22.4448 26.7457C21.1364 28.3767 20.2183 30.298 19.7637 32.3565C19.3092 34.415 19.3308 36.5537 19.8267 38.6021L21.4537 45.2634C21.5639 45.684 21.8311 46.0434 22.1978 46.2642C22.5644 46.485 23.0011 46.5495 23.4138 46.4439C23.8265 46.3383 24.1822 46.071 24.4041 45.6996C24.6261 45.3281 24.6967 44.8823 24.6006 44.4581L22.9736 37.7969C22.5995 36.2528 22.583 34.6406 22.9254 33.0889C23.2679 31.5372 23.9598 30.0888 24.9461 28.8593L26.3087 27.1657C26.501 26.9418 26.7549 26.7827 27.0372 26.7092C27.3194 26.6357 27.6168 26.6513 27.8903 26.754C30.3297 27.7034 32.4288 29.3909 33.9081 31.5917C35.3875 33.7925 36.1768 36.4023 36.1712 39.0737V43.1531C36.1712 44.0464 36.8427 44.8168 37.7154 44.8583C37.9348 44.8691 38.154 44.8342 38.3598 44.7557C38.5655 44.6772 38.7536 44.5567 38.9125 44.4017C39.0715 44.2466 39.198 44.0601 39.2845 43.8534C39.3709 43.6468 39.4155 43.4244 39.4154 43.1996V39.072C39.4225 35.5778 38.3393 32.1725 36.3237 29.3524C34.3183 26.5246 31.4863 24.4245 28.2358 23.3569Z" fill="#8835FF" fill-opacity="0.22"/>
<path d="M84.0806 33.0956C83.5872 33.082 83.1005 33.2337 82.6605 33.59C82.4726 33.742 82.2827 33.9464 82.1158 34.1771C79.3256 38.0357 76.2335 41.2627 72.955 44.1882C71.8877 46.0041 74.2581 49.6766 76.0734 49.6766C80.2336 48.0787 84.5557 46.8937 89.0801 46.4243C94.2739 45.8857 91.2352 38.0033 85.8817 40.8045C89.5735 38.0031 86.7461 33.1675 84.0806 33.0954V33.0956ZM68.2794 34.3431C67.528 34.3297 66.7911 34.4879 66.1356 34.872C65.9461 34.9835 65.7665 35.1115 65.5988 35.2546C65.5942 35.2476 65.5878 35.2385 65.5834 35.2316C55.8468 43.4385 51.4091 44.3118 46.3056 45.965C45.4666 46.2369 44.8106 46.8524 44.2952 47.8807C43.7798 48.909 43.4555 50.3332 43.4005 51.9748C43.2909 55.2578 44.2455 59.3814 46.2906 62.9784C48.3278 66.5614 51.5749 69.6458 54.534 71.2748C56.0135 72.0893 57.4194 72.5314 58.4786 72.5647C59.5378 72.5979 60.174 72.3236 60.6452 71.6531C64.4206 66.283 71.5309 63.1187 79.6717 60.2516C79.6711 60.2508 79.672 60.2487 79.6717 60.2478C79.9192 60.1661 80.1577 60.0587 80.3835 59.9272C81.3826 59.3417 82.0326 58.3332 82.3673 57.1927C82.702 56.0522 82.7596 54.7517 82.6146 53.3304C82.4985 52.1892 82.2451 50.9664 81.8647 49.6999C81.1439 49.8687 80.4479 50.0901 79.6828 50.376C80.0282 51.5192 80.2542 52.598 80.3529 53.566C80.4756 54.7698 80.402 55.7981 80.1854 56.5363C79.9688 57.2744 79.6478 57.6904 79.245 57.9267C78.8419 58.1628 78.3259 58.2363 77.5885 58.0578C76.8511 57.8794 75.9376 57.4311 74.9726 56.7217C73.0429 55.3026 70.9111 52.8627 69.17 49.8004C67.4289 46.7377 66.4151 43.6407 66.1698 41.2336C66.0472 40.03 66.1206 39.0055 66.3373 38.2673C66.5542 37.5291 66.8751 37.1092 67.2779 36.8732C67.4793 36.7549 67.7068 36.6779 67.9785 36.6529C68.0464 36.6467 68.1182 36.6446 68.1917 36.6451C68.4123 36.6469 68.6576 36.6787 68.9342 36.7457C69.6714 36.9242 70.5813 37.3686 71.5462 38.0781C72.5474 38.8143 73.6033 39.8289 74.6305 41.0599C75.2482 40.5587 75.7685 40.0403 76.2639 39.43C75.1709 38.1372 74.0261 37.0495 72.8828 36.2088C71.743 35.3709 70.6003 34.7739 69.4597 34.4978C69.1782 34.4291 68.8918 34.3826 68.6032 34.3588C68.4954 34.3503 68.3875 34.3452 68.2794 34.3434V34.3431ZM69.2502 38.5685C69.1968 38.5715 69.1454 38.5763 69.0942 38.584C66.983 38.8979 67.2702 43.0377 69.7071 47.7992C72.1439 52.561 75.8625 56.1512 77.9733 55.8368C78.7038 55.728 79.1019 55.1339 79.2719 54.2455C79.0684 54.5158 78.8032 54.6761 78.4531 54.7284C76.587 55.0062 73.2973 51.8742 71.1426 47.6642C68.9882 43.4541 68.7967 39.7653 70.6629 39.4876C71.1062 39.422 71.5999 39.5391 72.1671 39.8314C71.1095 38.991 70.0527 38.5234 69.2504 38.5685H69.2502ZM42.879 61.1591C40.862 61.387 38.5775 61.562 35.9264 61.7C29.9405 62.0118 32.8127 70.5464 39.5931 68.1541C33.5784 71.8495 40.0634 78.8978 42.8792 73.9321C44.1417 71.7054 45.5451 69.7558 47.0675 68.0226C46.0416 66.8306 45.1085 65.523 44.3184 64.133C43.7739 63.1754 43.2931 62.182 42.8792 61.1594L42.879 61.1591Z" fill="#1B0141" fill-opacity="0.87"/>
<path d="M68.5166 35.0686C71.5525 26.1144 66.7547 16.3943 57.8005 13.3584C48.8462 10.3226 39.1262 15.1204 36.0903 24.0746" stroke="black" stroke-width="3"/>
<path d="M35.5406 25.6959C25.1863 24.3625 17.4278 25.8017 16.0105 29.982C13.8957 36.2195 26.6991 46.1982 44.6076 52.27C62.5162 58.3419 78.7484 58.2075 80.8632 51.9699C82.2805 47.7897 76.9971 41.9287 67.9669 36.6899" stroke="black" stroke-width="3"/>
<path d="M36.0903 24.0746C37.2536 25.9754 40.3768 32.7587 50.1047 36.0569C59.8326 39.3551 66.3457 36.1402 68.5167 35.0686" stroke="black" stroke-width="3" stroke-linecap="round" stroke-linejoin="round"/>
<path d="M42.5478 31.6871L48.5389 24.6799" stroke="black" stroke-width="3" stroke-linecap="round" stroke-linejoin="round"/>
<path d="M23.9684 39.462C23.9684 41.6379 22.2045 43.4018 20.0287 43.4018C17.8528 43.4018 16.0889 41.6379 16.0889 39.462C16.0889 37.2861 17.8528 35.5222 20.0287 35.5222C22.2045 35.5222 23.9684 37.2861 23.9684 39.462Z" fill="#6319CD" fill-opacity="0.5"/>
<path d="M36.5758 26.8547C36.5758 28.1602 35.5174 29.2186 34.2119 29.2186C32.9064 29.2186 31.848 28.1602 31.848 26.8547C31.848 25.5492 32.9064 24.4908 34.2119 24.4908C35.5174 24.4908 36.5758 25.5492 36.5758 26.8547Z" fill="#BD8EFF" fill-opacity="0.45"/>
<path d="M61.7904 31.9765C61.7904 32.6292 61.2612 33.1584 60.6084 33.1584C59.9557 33.1584 59.4265 32.6292 59.4265 31.9765C59.4265 31.3237 59.9557 30.7945 60.6084 30.7945C61.2612 30.7945 61.7904 31.3237 61.7904 31.9765Z" fill="#C49BFF" fill-opacity="0.35"/>
<path d="M51.5469 44.1897C51.5469 45.9304 50.1358 47.3416 48.3951 47.3416C46.6544 47.3416 45.2433 45.9304 45.2433 44.1897C45.2433 42.449 46.6544 41.0379 48.3951 41.0379C50.1358 41.0379 51.5469 42.449 51.5469 44.1897Z" fill="#6319CD" fill-opacity="0.65"/>
<path d="M57.8506 58.767C57.8506 59.8549 56.9686 60.7369 55.8807 60.7369C54.7927 60.7369 53.9108 59.8549 53.9108 58.767C53.9108 57.679 54.7927 56.7971 55.8807 56.7971C56.9686 56.7971 57.8506 57.679 57.8506 58.767Z" fill="#230055"/>
<path d="M28.6961 57.979C28.6961 59.5021 27.4614 60.7368 25.9383 60.7368C24.4152 60.7368 23.1804 59.5021 23.1804 57.979C23.1804 56.4559 24.4152 55.2211 25.9383 55.2211C27.4614 55.2211 28.6961 56.4559 28.6961 57.979Z" fill="#230055" fill-opacity="0.75"/>
<defs>
<filter id="filter0_f_88_137" x="10.5129" y="41.7656" width="58.2963" height="31.8736" filterUnits="userSpaceOnUse" color-interpolation-filters="sRGB">
<feFlood flood-opacity="0" result="BackgroundImageFix"/>
<feBlend mode="normal" in="SourceGraphic" in2="BackgroundImageFix" result="shape"/>
<feGaussianBlur stdDeviation="2" result="effect1_foregroundBlur_88_137"/>
</filter>
</defs>
</svg>
