<svg width="85" height="89" viewBox="0 0 85 89" fill="none" xmlns="http://www.w3.org/2000/svg">
<g filter="url(#filter0_f_88_164)">
<path d="M68.6444 60.5648C64.3908 70.4889 44.0699 72.8518 44.0699 72.8518C44.0699 72.8518 22.8039 78.0502 10.9899 60.5648C5.88098 53.0035 6.26337 40.7164 34.1461 46.3875C54.7004 50.568 70.5343 48.2778 68.6444 60.5648Z" fill="#160035" fill-opacity="0.72"/>
</g>
<path d="M70.5348 56.7842C66.2811 66.7083 45.9603 69.0712 45.9603 69.0712C45.9603 69.0712 24.6943 74.2695 12.8803 56.7842C7.77136 49.2228 8.15375 36.9358 36.0365 42.6068C56.5908 46.7874 72.4246 44.4971 70.5348 56.7842Z" fill="#8835FF" fill-opacity="0.45"/>
<path d="M44.7362 37.8139L33.491 46.5934L44.8584 50.734L33.6133 59.5135" stroke="black" stroke-width="3" stroke-linecap="round" stroke-linejoin="round"/>
<path d="M20.0629 30.4361L18.5594 30.278C17.2178 30.1374 15.8678 30.4494 14.7238 31.1641C13.5799 31.8789 12.7076 32.9555 12.2458 34.2229L10.3028 39.5571C9.84137 40.8246 9.8168 42.2099 10.233 43.493C10.6493 44.7761 11.4824 45.8832 12.6001 46.6385L17.0936 49.6786C17.3225 49.833 17.5836 49.9332 17.857 49.9714C18.1304 50.0096 18.409 49.985 18.6714 49.8993C18.9339 49.8136 19.1734 49.6692 19.3716 49.477C19.5698 49.2848 19.7215 49.0499 19.8153 48.7902L25.4702 33.2652C25.5647 33.0059 25.5987 32.7286 25.5699 32.4542C25.541 32.1798 25.45 31.9156 25.3037 31.6817C25.1573 31.4478 24.9596 31.2503 24.7255 31.1043C24.4914 30.9582 24.2271 30.8675 23.9526 30.839L20.0629 30.4361ZM20.0629 30.4361L20.5805 29.0152C25.7251 14.8913 40.0762 7.14649 52.6315 11.7197C65.1867 16.293 71.1946 31.4534 66.05 45.5774L65.5324 46.9983M65.5324 46.9983L66.7854 47.8442C67.9031 48.5995 68.7362 49.7066 69.1525 50.9897C69.5687 52.2728 69.5441 53.6581 69.0827 54.9256L67.1397 60.2598C66.6779 61.5272 65.8057 62.6038 64.6617 63.3186C63.5178 64.0334 62.1677 64.3453 60.8262 64.2047L55.43 63.6426C55.1555 63.6136 54.8911 63.5224 54.6572 63.3758C54.4232 63.2292 54.2258 63.0312 54.0799 62.7968C53.934 62.5623 53.8436 62.2977 53.8154 62.0231C53.7872 61.7484 53.8221 61.471 53.9174 61.2118L59.5723 45.6868C59.6667 45.4279 59.8189 45.1939 60.0172 45.0026C60.2155 44.8112 60.4548 44.6676 60.7169 44.5825C60.9791 44.4974 61.2571 44.4731 61.53 44.5115C61.8029 44.5499 62.0635 44.65 62.292 44.8041L65.5324 46.9983Z" stroke="black" stroke-width="3" stroke-linecap="round" stroke-linejoin="round"/>
<path d="M19.809 37.3769C19.809 39.9869 17.6932 42.1027 15.0832 42.1027C12.4732 42.1027 10.3574 39.9869 10.3574 37.3769C10.3574 34.7669 12.4732 32.6511 15.0832 32.6511C17.6932 32.6511 19.809 34.7669 19.809 37.3769Z" fill="#6319CD" fill-opacity="0.5"/>
<path d="M34.9314 22.2544C34.9314 23.8204 33.6619 25.0899 32.096 25.0899C30.53 25.0899 29.2605 23.8204 29.2605 22.2544C29.2605 20.6884 30.53 19.419 32.096 19.419C33.6619 19.419 34.9314 20.6884 34.9314 22.2544Z" fill="#BD8EFF" fill-opacity="0.45"/>
<path d="M65.1765 28.398C65.1765 29.181 64.5418 29.8157 63.7588 29.8157C62.9758 29.8157 62.3411 29.181 62.3411 28.398C62.3411 27.615 62.9758 26.9802 63.7588 26.9802C64.5418 26.9802 65.1765 27.615 65.1765 28.398Z" fill="#C49BFF" fill-opacity="0.35"/>
<path d="M52.8895 43.0479C52.8895 45.1358 51.1968 46.8285 49.1089 46.8285C47.0209 46.8285 45.3282 45.1358 45.3282 43.0479C45.3282 40.9599 47.0209 39.2672 49.1089 39.2672C51.1968 39.2672 52.8895 40.9599 52.8895 43.0479Z" fill="#6319CD" fill-opacity="0.65"/>
<path d="M60.4508 60.5333C60.4508 61.8383 59.3929 62.8962 58.0879 62.8962C56.7829 62.8962 55.725 61.8383 55.725 60.5333C55.725 59.2283 56.7829 58.1704 58.0879 58.1704C59.3929 58.1704 60.4508 59.2283 60.4508 60.5333Z" fill="#230055"/>
<path d="M25.4799 59.5881C25.4799 61.4151 23.9988 62.8961 22.1718 62.8961C20.3448 62.8961 18.8638 61.4151 18.8638 59.5881C18.8638 57.7611 20.3448 56.28 22.1718 56.28C23.9988 56.28 25.4799 57.7611 25.4799 59.5881Z" fill="#230055" fill-opacity="0.75"/>
<defs>
<filter id="filter0_f_88_164" x="4.46704" y="40.9381" width="68.3306" height="36.6364" filterUnits="userSpaceOnUse" color-interpolation-filters="sRGB">
<feFlood flood-opacity="0" result="BackgroundImageFix"/>
<feBlend mode="normal" in="SourceGraphic" in2="BackgroundImageFix" result="shape"/>
<feGaussianBlur stdDeviation="2" result="effect1_foregroundBlur_88_164"/>
</filter>
</defs>
</svg>
