<svg width="91" height="93" viewBox="0 0 91 93" fill="none" xmlns="http://www.w3.org/2000/svg">
<path d="M45.9924 7.94253C44.2509 7.53157 42.0959 10.6602 43.7305 11.6987L44.6764 12.2934L47.0523 11.1604L47.3464 8.71278L46.4233 8.12422C46.306 8.05237 46.1965 8.00146 46.0722 7.96335L45.9917 7.9456L45.9924 7.94253ZM61.2689 12.1599L61.0045 12.1016C60.1477 11.9446 59.2011 11.9303 58.2043 12.0985C55.5619 12.5494 52.4975 14.3323 49.7293 18.3264L31.9701 44.1734L31.9544 44.1913L31.9501 44.2117C32.0429 44.2856 32.3233 44.4972 32.7842 44.8234C33.8081 45.5625 35.2077 47.0367 34.9567 49.4511L34.946 49.5022L33.646 55.1599L44.7473 57.6092C45.111 55.8078 45.6435 54.1184 46.7759 52.5507C48.7471 49.8423 52.4624 47.9356 59.5643 47.1398C59.5686 47.1193 59.5643 47.1398 59.5843 47.1014C59.6614 46.9046 59.7582 46.4983 59.8188 45.9771C59.9191 44.9194 59.8898 43.3305 59.7299 41.4456C59.4123 37.6656 58.5893 32.6193 57.5194 27.6041L57.3758 26.9096L58.0629 26.6121C62.8125 24.645 65.1374 22.143 65.9413 19.8442C66.7431 17.5556 66.0785 15.4396 64.6072 13.9635C63.7419 13.0979 62.6022 12.453 61.2697 12.1558L61.2689 12.1599ZM49.1597 11.3731L49.0268 12.414L48.0127 12.8959L50.3162 14.3589C50.5003 14.1675 50.6947 13.9848 50.8878 13.8082L51.5583 12.8987L49.1597 11.3731ZM56.6936 15.0197C57.7049 15.2428 58.3798 16.1572 58.1913 17.0608C58.0029 17.9644 57.0229 18.5136 56.0116 18.2905C55.0003 18.0674 54.3255 17.153 54.5139 16.2494C54.7023 15.3459 55.6823 14.7966 56.6936 15.0197ZM39.9247 16.6335C38.1843 16.2175 36.0065 19.34 37.6629 20.3897L38.5975 20.9808L40.9734 19.8479L41.2811 17.3925L40.3465 16.8014C40.2286 16.7327 40.1179 16.6869 40.0052 16.6513L39.9247 16.6335ZM43.0816 20.0564L42.9489 21.0963L41.9349 21.5782L44.0491 22.9107L45.1197 21.3508L43.0816 20.0564ZM50.8879 23.8957C51.8992 24.1189 52.5732 25.0374 52.3856 25.9368C52.1981 26.8363 51.2172 27.3897 50.2059 27.1665C49.1946 26.9434 48.5206 26.0249 48.7082 25.1254C48.8957 24.226 49.8766 23.6726 50.8879 23.8957ZM33.7436 25.523C31.9917 25.1044 29.8369 28.232 31.4702 29.2766L32.4163 29.8703L34.7923 28.7373L35.0884 26.2794L34.1653 25.6909C34.0475 25.6221 33.9368 25.5763 33.824 25.5407L33.7436 25.523ZM36.9005 28.9459L36.7678 29.9857L35.7537 30.4676L37.9212 31.8333L38.9918 30.2733L36.9005 28.9459ZM44.2118 32.6225C45.2231 32.8456 45.897 33.7641 45.7095 34.6636C45.5219 35.5631 44.541 36.1164 43.5297 35.8933C42.5184 35.6702 41.8445 34.7517 42.032 33.8522C42.2196 32.9527 43.2005 32.3993 44.2118 32.6225ZM26.9519 34.6305C25.2116 34.2144 23.0476 37.34 24.6901 38.3867L25.6247 38.9778L28.0006 37.8448L28.2968 35.387L27.3737 34.7984C27.2558 34.7296 27.1452 34.6838 27.0324 34.6483L26.9519 34.6305ZM30.1089 38.0534L29.9762 39.0933L28.9621 39.5752L31.3841 41.1039L32.5193 39.5796L30.1089 38.0534ZM37.6785 41.7015C38.6898 41.9246 39.3638 42.8431 39.1763 43.7426C38.9887 44.6421 38.0078 45.1955 36.9965 44.9723C35.9852 44.7492 35.3112 43.8307 35.4988 42.9312C35.6864 42.0317 36.6672 41.4784 37.6785 41.7015Z" fill="black"/>
<g filter="url(#filter0_f_88_180)">
<path d="M73.2114 65.1372C68.9739 74.5709 47.4133 76.2524 47.4133 76.2524C47.4133 76.2524 24.9294 80.6372 11.8431 63.4513C6.18401 56.0194 6.23174 44.1968 36.0763 50.474C58.0768 55.1014 74.8637 53.3586 73.2114 65.1372Z" fill="#160035" fill-opacity="0.72"/>
</g>
<path d="M75.1129 61.5513C70.8755 70.985 49.3148 72.6665 49.3148 72.6665C49.3148 72.6665 26.831 77.0513 13.7447 59.8654C8.08556 52.4335 8.13329 40.6108 37.9779 46.8881C59.9784 51.5155 76.7652 49.7727 75.1129 61.5513Z" fill="#8835FF" fill-opacity="0.45"/>
<path d="M19.9685 41.1482C19.9685 43.7897 17.8271 45.9311 15.1856 45.9311C12.5441 45.9311 10.4028 43.7897 10.4028 41.1482C10.4028 38.5067 12.5441 36.3654 15.1856 36.3654C17.8271 36.3654 19.9685 38.5067 19.9685 41.1482Z" fill="#6319CD" fill-opacity="0.5"/>
<path d="M36.0582 27.1711C36.0582 28.756 34.7734 30.0408 33.1885 30.0408C31.6036 30.0408 30.3188 28.756 30.3188 27.1711C30.3188 25.5862 31.6036 24.3014 33.1885 24.3014C34.7734 24.3014 36.0582 25.5862 36.0582 27.1711Z" fill="#BD8EFF" fill-opacity="0.45"/>
<path d="M68.5794 34.0554C68.6023 34.8095 67.9452 35.4023 67.1118 35.3794C66.2784 35.3565 65.5842 34.7266 65.5613 33.9725C65.5384 33.2184 66.1955 32.6256 67.0289 32.6485C67.8623 32.6714 68.5565 33.3013 68.5794 34.0554Z" fill="#C49BFF" fill-opacity="0.35"/>
<path d="M55.9293 47.8057C55.9904 49.8166 54.2382 51.3973 52.0157 51.3363C49.7932 51.2752 47.9421 49.5955 47.881 47.5846C47.8199 45.5736 49.5721 43.9929 51.7946 44.0539C54.0171 44.115 55.8682 45.7947 55.9293 47.8057Z" fill="#6319CD" fill-opacity="0.65"/>
<path d="M64.4889 64.8673C64.5271 66.1241 63.432 67.1121 62.0429 67.0739C60.6539 67.0357 59.4969 65.9859 59.4587 64.7291C59.4206 63.4722 60.5157 62.4843 61.9047 62.5224C63.2938 62.5606 64.4508 63.6104 64.4889 64.8673Z" fill="#230055"/>
<path d="M27.0648 62.8376C27.0648 64.6866 25.5659 66.1856 23.7168 66.1856C21.8678 66.1856 20.3688 64.6866 20.3688 62.8376C20.3688 60.9885 21.8678 59.4896 23.7168 59.4896C25.5659 59.4896 27.0648 60.9885 27.0648 62.8376Z" fill="#230055" fill-opacity="0.75"/>
<defs>
<filter id="filter0_f_88_180" x="4.94098" y="44.6995" width="72.3827" height="36.0535" filterUnits="userSpaceOnUse" color-interpolation-filters="sRGB">
<feFlood flood-opacity="0" result="BackgroundImageFix"/>
<feBlend mode="normal" in="SourceGraphic" in2="BackgroundImageFix" result="shape"/>
<feGaussianBlur stdDeviation="2" result="effect1_foregroundBlur_88_180"/>
</filter>
</defs>
</svg>
