<svg width="356" height="413" viewBox="0 0 356 413" fill="none" xmlns="http://www.w3.org/2000/svg">
<path d="M178 0C136.037 0 95.7924 15.8227 66.12 43.9872C36.4476 72.1518 19.7778 110.351 19.7778 150.182C19.7778 190.013 36.4476 228.212 66.12 256.376C95.7924 284.541 136.037 300.364 178 300.364C219.963 300.364 260.208 284.541 289.88 256.376C319.552 228.212 336.222 190.013 336.222 150.182C336.222 110.351 319.552 72.1518 289.88 43.9872C260.208 15.8227 219.963 0 178 0ZM59.3333 150.182C59.3333 120.309 71.8357 91.6593 94.09 70.5359C116.344 49.4125 146.528 37.5455 178 37.5455C209.472 37.5455 239.656 49.4125 261.91 70.5359C284.164 91.6593 296.667 120.309 296.667 150.182C296.667 180.055 284.164 208.704 261.91 229.828C239.656 250.951 209.472 262.818 178 262.818C146.528 262.818 116.344 250.951 94.09 229.828C71.8357 208.704 59.3333 180.055 59.3333 150.182ZM0 413V337.909H356V413H316.444V375.455H39.5556V413H0Z" fill="white"/>
</svg>
