<svg width="126" height="26" viewBox="0 0 126 26" fill="none" xmlns="http://www.w3.org/2000/svg">
<path d="M0.371094 11.2539L0.394531 6.4375V1.55078C0.410156 1.54297 0.484375 1.53906 0.617188 1.53906H1.05078C1.21484 1.53906 1.33984 1.53125 1.42578 1.51562L2.87891 1.45703C3.25391 1.44141 3.54297 1.43359 3.74609 1.43359H5.60938L9.05469 1.35156C9.52344 1.35156 10.0391 1.37109 10.6016 1.41016H10.6836C10.9492 1.39453 11.1172 1.38672 11.1875 1.38672C12.75 1.38672 14.0859 1.88281 15.1953 2.875C15.7344 3.35156 16.1602 3.96484 16.4727 4.71484C16.7852 5.46484 16.9414 6.24219 16.9414 7.04688C16.9414 7.84375 16.8594 8.52344 16.6953 9.08594C16.5312 9.64844 16.3203 10.125 16.0625 10.5156C15.0312 12.0938 13.0352 13.0156 10.0742 13.2812L7.54297 13.3867C7.46484 15.2617 7.42578 16.7188 7.42578 17.7578L7.4375 18.1211V19.0703C7.40625 19.1797 7.34766 19.2539 7.26172 19.293L0.570312 19.3984C0.4375 19.0234 0.371094 18.4219 0.371094 17.5938V11.2539ZM10.625 6.22656C10.3125 5.40625 9.48438 4.96875 8.14062 4.91406C7.94531 4.90625 7.67578 4.90234 7.33203 4.90234C7.23828 4.90234 7.17969 6.05469 7.15625 8.35938L7.13281 9.23828L7.16797 9.94141C8.12891 9.92578 8.97266 9.72266 9.69922 9.33203C10.4336 8.94141 10.8008 8.23047 10.8008 7.19922C10.8008 6.76172 10.7422 6.4375 10.625 6.22656ZM17.4219 4.97266L20.5391 4.96094H23.6562L23.9141 6.53125C24.0938 7.63281 24.1992 8.25781 24.2305 8.40625H24.6406C24.9297 7.07031 25.4844 6.12109 26.3047 5.55859L26.7734 5.28906C26.7969 5.24219 26.9375 5.15625 27.1953 5.03125L27.1484 5.04297L27.418 4.9375C28.1836 4.63281 28.8438 4.47656 29.3984 4.46875C29.5156 4.46875 29.5938 4.47656 29.6328 4.49219H30.0664V11.0312C29.9023 10.9922 29.6445 10.9727 29.293 10.9727C28.9414 10.9727 28.5781 11.0234 28.2031 11.125C27.8359 11.2266 27.5234 11.3594 27.2656 11.5234C27.0156 11.6797 26.7969 11.8828 26.6094 12.1328C26.0312 12.9062 25.7422 14.0664 25.7422 15.6133L25.7656 16.8438V19L21.5938 19.0117H17.4336L17.4219 12.0156V4.97266ZM48.5352 11.9102C48.5195 11.9883 48.5117 12.0352 48.5117 12.0508V12.1445C48.4883 13.4336 48.1914 14.5938 47.6211 15.625H47.6328C46.8359 16.8438 45.7227 17.7812 44.293 18.4375C42.8711 19.0938 41.4688 19.4219 40.0859 19.4219C38.7031 19.4219 37.5547 19.2852 36.6406 19.0117C35.7344 18.7461 34.8945 18.3555 34.1211 17.8398C33.3477 17.3242 32.7734 16.8281 32.3984 16.3516C31.5078 15.2266 31.0625 13.6367 31.0625 11.582C31.0625 11.5117 31.0742 11.4531 31.0977 11.4062V11.2188C31.0742 11.1875 31.0625 11.1562 31.0625 11.125L31.0859 10.9961H31.0742C31.2227 9.62891 31.5117 8.73047 31.9414 8.30078C31.9414 8.21484 31.9961 8.11719 32.1055 8.00781V8.01953L32.2812 7.73828C33.2031 6.55859 34.2578 5.75 35.4453 5.3125L35.8555 5.16016C36.3711 4.91016 37.0938 4.72266 38.0234 4.59766L38.3984 4.5625C38.4531 4.55469 38.5625 4.54688 38.7266 4.53906C38.8984 4.53125 39.0195 4.51562 39.0898 4.49219L39.5938 4.50391C39.6172 4.49609 39.6445 4.49219 39.6758 4.49219C39.707 4.49219 39.7422 4.49609 39.7812 4.50391L39.7695 4.49219C39.8164 4.51562 39.8867 4.52734 39.9805 4.52734C40.0117 4.49609 40.0664 4.48047 40.1445 4.48047C41.8398 4.48047 43.2812 4.82812 44.4688 5.52344L44.7031 5.62891C47.2578 6.85547 48.5352 8.94922 48.5352 11.9102ZM41.2461 11.9805C41.2148 10.4258 40.9922 9.375 40.5781 8.82812C40.4062 8.60156 40.1953 8.48828 39.9453 8.48828C39.7031 8.48828 39.4883 8.63281 39.3008 8.92188C39.1133 9.20312 38.9609 9.64844 38.8438 10.2578C38.7344 10.8672 38.6797 11.4102 38.6797 11.8867C38.6797 12.3555 38.6992 12.7617 38.7383 13.1055C38.7852 13.4414 38.8516 13.8008 38.9375 14.1836C39.0234 14.5586 39.1562 14.875 39.3359 15.1328C39.5156 15.3828 39.7188 15.5078 39.9453 15.5078C40.8125 15.5078 41.2461 14.332 41.2461 11.9805ZM52.1797 3.83594L52.1445 0.789062H55.5664L58.9883 0.777344L59 3.83594H52.1797ZM49.9531 25.2344C49.7266 25.0781 49.6367 24.9023 49.6836 24.707V24.6719C49.707 24.5781 49.7188 24.5195 49.7188 24.4961V24.2734L49.7539 23.1484V20.4766H50.1406C51.125 20.4766 51.7266 20.1406 51.9453 19.4688C52.0547 19.1484 52.1094 18.7344 52.1094 18.2266V18.0508L52.1328 16.5625V4.98438H55.5547L58.9883 4.97266C59.0117 10.0117 59.0234 15.1094 59.0234 20.2656V20.3125C59.0469 20.4688 59.0586 20.6211 59.0586 20.7695C59.0586 21.418 58.9219 22.0898 58.6484 22.7852C58.3828 23.4883 58.0352 23.9883 57.6055 24.2852H57.6172C56.6172 24.9414 55.1406 25.2695 53.1875 25.2695L51.9453 25.2344H51.875L51.8047 25.2461H51.5938C51.5469 25.2461 51.5078 25.2383 51.4766 25.2227H51.2656C51.1484 25.2617 51.0195 25.2812 50.8789 25.2812C50.7383 25.2812 50.5742 25.2734 50.3867 25.2578H50.3164C50.1758 25.2422 50.0547 25.2344 49.9531 25.2344ZM49.7539 20.4766H49.6602L49.7539 20.3594V20.4766ZM66.4414 4.63281C66.793 4.53125 67.168 4.48047 67.5664 4.48047C67.9648 4.48047 68.3438 4.49609 68.7031 4.52734L69.1953 4.57422C69.9688 4.64453 70.5625 4.73438 70.9766 4.84375V4.83203L71.2227 4.9375C72.8633 5.44531 74.1406 6.21875 75.0547 7.25781V7.24609C75.2656 7.49609 75.5234 7.875 75.8281 8.38281C76.1406 8.88281 76.2969 9.23047 76.2969 9.42578L76.3906 9.74219L76.4492 10.082C76.5977 10.6055 76.6719 11.043 76.6719 11.3945C76.6719 11.7461 76.6758 12.0156 76.6836 12.2031H67.0273V12.5898C67.0742 12.7695 67.0977 12.957 67.0977 13.1523C67.0977 13.3477 67.0977 13.5039 67.0977 13.6211C67.1055 13.7305 67.1172 13.8398 67.1328 13.9492C67.1484 14.0508 67.1562 14.1367 67.1562 14.207C67.1641 14.2695 67.1836 14.3477 67.2148 14.4414C67.2461 14.5273 67.2617 14.5859 67.2617 14.6172C67.2695 14.6484 67.293 14.7109 67.332 14.8047C67.3789 14.8984 67.4141 14.9883 67.4375 15.0742C67.4688 15.1523 67.5234 15.2305 67.6016 15.3086V15.2969L67.7305 15.543C67.8789 15.707 68.082 15.8242 68.3398 15.8945C68.7695 15.8008 69.0586 15.5781 69.207 15.2266C69.3633 14.875 69.4922 14.4375 69.5938 13.9141C69.875 13.8359 70.2734 13.7969 70.7891 13.7969L72.2891 13.832H76.6133C76.5195 14.7852 76.2383 15.6602 75.7695 16.457H75.7812C75.375 17.0977 74.7422 17.6484 73.8828 18.1094C71.4531 18.9609 69.8945 19.3867 69.207 19.3867C69.082 19.3867 68.9805 19.3789 68.9023 19.3633H68.6328L68.5273 19.375H68.4219C68.3594 19.375 68.2812 19.3672 68.1875 19.3516C68.1094 19.3984 68.0156 19.4219 67.9062 19.4219L66.8867 19.3047C66.832 19.3281 66.7188 19.3398 66.5469 19.3398C66.3828 19.3398 65.9453 19.2344 65.2344 19.0234V19.0352L64.9531 18.9531L64.6719 18.8594C63.5 18.5156 62.4961 17.9141 61.6602 17.0547C60.8242 16.1875 60.2891 15.1797 60.0547 14.0312C60.0312 13.8906 59.9883 13.6797 59.9258 13.3984C59.8633 13.1094 59.832 12.9141 59.832 12.8125V12.25C59.832 12.1172 59.8359 12.0156 59.8438 11.9453V11.7695C59.8438 10.1133 60.3359 8.68359 61.3203 7.48047C62.3047 6.26953 63.625 5.41797 65.2812 4.92578L65.5625 4.84375C65.9766 4.77344 66.2734 4.69922 66.4531 4.62109L66.4414 4.63281ZM69.9453 10.6562L70.1914 10.5039C70.0586 9.66016 69.9336 9.12109 69.8164 8.88672C69.6992 8.64453 69.5859 8.4375 69.4766 8.26562C69.2734 7.9375 69.0039 7.77344 68.668 7.77344C68.3398 7.77344 68.0586 7.9375 67.8242 8.26562C67.4102 8.84375 67.1484 9.65625 67.0391 10.7031C67.5391 10.6719 68 10.6562 68.4219 10.6562H69.9453ZM86.4688 19.3633L85.5312 19.4219C85.0547 19.4219 84.5859 19.3672 84.125 19.2578C83.8125 19.2578 83.3906 19.1758 82.8594 19.0117C81.0781 18.5898 79.75 17.8594 78.875 16.8203L78.6641 16.5742C77.9844 15.6992 77.543 14.5234 77.3398 13.0469L77.3047 12.8008C77.2734 12.5508 77.2578 12.2539 77.2578 11.9102C77.2578 11.5586 77.3242 11.0859 77.457 10.4922C77.9492 8.29688 78.9844 6.78125 80.5625 5.94531L82.1445 5.10156C83.3164 4.67969 84.7773 4.46875 86.5273 4.46875C87.1914 4.46875 87.8047 4.55469 88.3672 4.72656L88.6016 4.79688C88.5938 4.79688 88.5898 4.79297 88.5898 4.78516H88.6133C91.2617 5.48828 93.0234 6.65234 93.8984 8.27734L93.9219 8.35938C94.3125 9.14844 94.5742 10.0312 94.707 11.0078L94.4375 10.9141H87.1016L87.043 10.4805C86.918 9.58203 86.707 8.98438 86.4102 8.6875L86.1758 8.54688C85.4883 8.59375 85.1016 9.53125 85.0156 11.3594C85.0078 11.6094 84.9961 11.7578 84.9805 11.8047L84.9922 12.1797L85.0273 12.8594C85.0273 12.9141 85.0312 12.9727 85.0391 13.0352L85.1562 13.1523H85.0273C85.0664 13.7383 85.1875 14.1875 85.3906 14.5C85.6016 14.8125 85.8125 14.9688 86.0234 14.9688C86.4219 14.9688 86.6953 14.7266 86.8438 14.2422C86.9922 13.7578 87.0664 13.3164 87.0664 12.918C87.668 12.8867 88.5742 12.8711 89.7852 12.8711H90.2305L91.3555 12.8828H92.4805L94.7422 12.8945C94.5 15.4023 93.3164 17.1758 91.1914 18.2148C91.0352 18.2695 90.8203 18.3594 90.5469 18.4844L90.1016 18.6953C88.8594 19.1719 87.7227 19.4102 86.6914 19.4102C86.582 19.4102 86.5078 19.3945 86.4688 19.3633ZM104.316 13.1641L104.305 13.3398C104.305 13.6133 104.312 13.8164 104.328 13.9492C104.352 14.0742 104.434 14.2266 104.574 14.4062C104.715 14.5781 105.172 14.6641 105.945 14.6641L106.262 14.6758C106.379 14.6758 106.484 14.6641 106.578 14.6406L106.59 19.0117H100.18L99.7812 19.0352H99.6523C99.3633 19.0352 99.0469 18.9414 98.7031 18.7539C98.3594 18.5664 98.1016 18.4023 97.9297 18.2617C97.7656 18.1133 97.625 17.9258 97.5078 17.6992C97.2891 17.2773 97.1562 16.8633 97.1094 16.457C97.0703 16.043 97.0508 15.5312 97.0508 14.9219V8.42969H95.668L95.6562 6.78906V5.11328H97.0039V1.23438H100.625L104.246 1.22266L104.258 5.08984H106.215L106.227 6.76562V8.42969H104.316V13.1641ZM122.199 8.01953L121.133 8.00781C120.5 8.00781 119.52 8.01562 118.191 8.03125C118.098 7.77344 117.906 7.55469 117.617 7.375C117.336 7.19531 117.023 7.10547 116.68 7.10547C116.336 7.10547 116.055 7.18359 115.836 7.33984C115.617 7.48828 115.508 7.69922 115.508 7.97266C115.508 8.24609 115.609 8.49219 115.812 8.71094C116.023 8.92969 116.316 9.08594 116.691 9.17969C117.066 9.26562 117.438 9.32422 117.805 9.35547C118.18 9.38672 118.613 9.41797 119.105 9.44922C119.605 9.48047 119.98 9.51953 120.23 9.56641C120.488 9.60547 120.812 9.64844 121.203 9.69531C121.898 9.78906 122.512 9.91797 123.043 10.082C123.582 10.2383 124.145 10.5703 124.73 11.0781C124.848 11.1328 125.004 11.2773 125.199 11.5117C125.551 12.0508 125.773 12.832 125.867 13.8555C125.828 14.9805 125.418 15.9805 124.637 16.8555C123.855 17.7227 122.867 18.3516 121.672 18.7422C121.578 18.7891 121.461 18.8203 121.32 18.8359L120.922 18.9297C120.164 19.1484 119.508 19.2578 118.953 19.2578C118.617 19.3672 118.078 19.4219 117.336 19.4219L117.043 19.4102H116.188L116.059 19.4219C114.848 19.4219 113.551 19.2266 112.168 18.8359V18.8477C109.223 18.1211 107.746 16.8555 107.738 15.0508C108.152 15.082 108.727 15.0977 109.461 15.0977C110.195 15.0977 111.188 15.0938 112.438 15.0859C113.695 15.0703 114.648 15.0625 115.297 15.0625C115.289 15.1094 115.285 15.1875 115.285 15.2969C115.285 15.6406 115.461 15.9219 115.812 16.1406C116.164 16.3594 116.57 16.4688 117.031 16.4688C117.492 16.4688 117.855 16.3789 118.121 16.1992C118.387 16.0195 118.52 15.7891 118.52 15.5078C118.52 15.2188 118.445 14.9805 118.297 14.793C118.148 14.5977 117.93 14.4531 117.641 14.3594C117.352 14.2656 117.082 14.1992 116.832 14.1602C116.59 14.1133 116.273 14.0742 115.883 14.043C115.492 14.0117 115.203 13.9805 115.016 13.9492C114.828 13.918 114.551 13.8789 114.184 13.832C113.816 13.7773 113.492 13.7344 113.211 13.7031C112.938 13.6641 112.613 13.6094 112.238 13.5391C111.871 13.4688 111.543 13.3984 111.254 13.3281C110.973 13.25 110.668 13.1484 110.34 13.0234C110.012 12.8984 109.727 12.7617 109.484 12.6133C108.305 11.8789 107.715 10.8086 107.715 9.40234C107.715 8.14453 108.07 7.17188 108.781 6.48438C109.672 5.63281 111.117 5.07812 113.117 4.82031C113.32 4.78906 113.609 4.73438 113.984 4.65625C114.359 4.57031 114.617 4.52734 114.758 4.52734C114.898 4.52734 114.992 4.53516 115.039 4.55078L116.527 4.46875L118.59 4.5625C118.668 4.57031 118.895 4.58594 119.27 4.60938C120.199 4.67969 121.016 4.8125 121.719 5.00781C122.43 5.19531 123.105 5.56641 123.746 6.12109C124.395 6.67578 124.766 7.27734 124.859 7.92578L124.777 7.90234L122.199 8.01953Z" fill="white"/>
</svg>
