<svg width="16" height="12" viewBox="0 0 16 12" fill="none" xmlns="http://www.w3.org/2000/svg">
<path d="M15.1995 9.53674e-07H0.799109C0.653312 0.000459671 0.5104 0.0407419 0.385756 0.116511C0.261113 0.192282 0.159457 0.30067 0.091733 0.43001C0.0240078 0.559351 -0.00722313 0.704746 0.00140381 0.850545C0.0100307 0.996343 0.0581875 1.13702 0.140691 1.25744L7.34089 11.676C7.6393 12.108 8.35772 12.108 8.65693 11.676L15.8571 1.25744C15.9405 1.13727 15.9894 0.996523 15.9984 0.850482C16.0075 0.704441 15.9765 0.558696 15.9087 0.429081C15.8409 0.299466 15.739 0.190939 15.614 0.115292C15.4889 0.0396452 15.3456 -0.000228882 15.1995 9.53674e-07Z" fill="white"/>
</svg>
