<svg width="89" height="91" viewBox="0 0 89 91" fill="none" xmlns="http://www.w3.org/2000/svg">
<g filter="url(#filter0_f_88_123)">
<path d="M72.6276 60.6314C68.1272 71.1314 46.6272 73.6314 46.6272 73.6314C46.6272 73.6314 24.1272 79.1314 11.6276 60.6314C6.22225 52.6313 6.62683 39.6313 36.1275 45.6314C57.8745 50.0545 74.6272 47.6314 72.6276 60.6314Z" fill="#160035" fill-opacity="0.72"/>
</g>
<path d="M74.6276 56.6314C70.1272 67.1314 48.6272 69.6314 48.6272 69.6314C48.6272 69.6314 26.1272 75.1314 13.6276 56.6314C8.22225 48.6313 8.62683 35.6312 38.1275 41.6314C59.8745 46.0545 76.6272 43.6314 74.6276 56.6314Z" fill="#8835FF" fill-opacity="0.45"/>
<path d="M38.5088 26.2651L25.5036 20.552L19.2712 34.7395L32.2763 40.4526L42.4863 36.4751L38.5088 26.2651ZM30.8069 34.1653L26.0778 32.0878L28.1553 27.3587L32.8844 29.4361L30.8069 34.1653ZM57.8012 30.5088L63.5143 17.5036L49.3268 11.2712L43.6137 24.2763L47.5913 34.4863L57.8012 30.5088ZM51.9785 18.0778L56.7076 20.1553L54.6302 24.8844L49.901 22.807L51.9785 18.0778ZM34.2651 45.5575L28.552 58.5627L42.7395 64.7951L48.4525 51.79L44.475 41.58L34.2651 45.5575ZM40.0878 57.9885L35.3587 55.911L37.4361 51.1819L42.1653 53.2594L40.0878 57.9885ZM59.79 35.6138L49.58 39.5913L53.5575 49.8012L66.5627 55.5143L72.7951 41.3268L59.79 35.6138ZM63.911 48.7077L59.1819 46.6302L61.2593 41.901L65.9885 43.9785L63.911 48.7077Z" fill="black"/>
<path d="M20.9584 36.098C20.9584 38.8594 18.7199 41.098 15.9584 41.098C13.197 41.098 10.9584 38.8594 10.9584 36.098C10.9584 33.3366 13.197 31.098 15.9584 31.098C18.7199 31.098 20.9584 33.3366 20.9584 36.098Z" fill="#6319CD" fill-opacity="0.5"/>
<path d="M36.9584 20.098C36.9584 21.7549 35.6152 23.098 33.9584 23.098C32.3015 23.098 30.9584 21.7549 30.9584 20.098C30.9584 18.4412 32.3015 17.098 33.9584 17.098C35.6152 17.098 36.9584 18.4412 36.9584 20.098Z" fill="#BD8EFF" fill-opacity="0.45"/>
<path d="M68.9584 26.598C68.9584 27.4265 68.2868 28.098 67.4584 28.098C66.6299 28.098 65.9584 27.4265 65.9584 26.598C65.9584 25.7696 66.6299 25.098 67.4584 25.098C68.2868 25.098 68.9584 25.7696 68.9584 26.598Z" fill="#C49BFF" fill-opacity="0.35"/>
<path d="M55.9584 42.098C55.9584 44.3071 54.1675 46.098 51.9584 46.098C49.7492 46.098 47.9584 44.3071 47.9584 42.098C47.9584 39.8889 49.7492 38.098 51.9584 38.098C54.1675 38.098 55.9584 39.8889 55.9584 42.098Z" fill="#6319CD" fill-opacity="0.65"/>
<path d="M63.9584 60.598C63.9584 61.9787 62.8391 63.098 61.4584 63.098C60.0777 63.098 58.9584 61.9787 58.9584 60.598C58.9584 59.2173 60.0777 58.098 61.4584 58.098C62.8391 58.098 63.9584 59.2173 63.9584 60.598Z" fill="#230055"/>
<path d="M26.9584 59.598C26.9584 61.531 25.3914 63.098 23.4584 63.098C21.5254 63.098 19.9584 61.531 19.9584 59.598C19.9584 57.665 21.5254 56.098 23.4584 56.098C25.3914 56.098 26.9584 57.665 26.9584 59.598Z" fill="#230055" fill-opacity="0.75"/>
<defs>
<filter id="filter0_f_88_123" x="4.95837" y="40.098" width="71.8313" height="38.2981" filterUnits="userSpaceOnUse" color-interpolation-filters="sRGB">
<feFlood flood-opacity="0" result="BackgroundImageFix"/>
<feBlend mode="normal" in="SourceGraphic" in2="BackgroundImageFix" result="shape"/>
<feGaussianBlur stdDeviation="2" result="effect1_foregroundBlur_88_123"/>
</filter>
</defs>
</svg>
