<svg width="98" height="98" viewBox="0 0 98 98" fill="none" xmlns="http://www.w3.org/2000/svg">
<g filter="url(#filter0_f_82_66)">
<path d="M81.7639 61.3608C76.42 74.2919 52.2399 77.9489 52.2399 77.9489C52.2399 77.9489 26.8535 85.2925 13.3606 63.0873C7.52561 53.4848 8.34724 37.621 41.2585 44.1026C65.5196 48.8807 84.374 45.4518 81.7639 61.3608Z" fill="#160035" fill-opacity="0.72"/>
</g>
<path d="M84.1197 56.4265C78.7759 69.3576 54.5958 73.0147 54.5958 73.0147C54.5958 73.0147 29.2094 80.3582 15.7164 58.153C9.88145 48.5505 10.7031 32.6867 43.6143 39.1684C67.8754 43.9464 86.7299 40.5175 84.1197 56.4265Z" fill="#8835FF" fill-opacity="0.45"/>
<path d="M32.1318 34.4144L27.6766 51.0415C26.2571 56.3391 25.547 58.9894 26.6591 61.0526C27.924 63.3949 33.9145 66.1789 40.2132 67.9294C46.3473 69.6357 52.7668 70.3619 55.3898 68.7509C57.3819 67.5195 58.092 64.8693 59.5115 59.5716L63.9667 42.9445" stroke="black" stroke-width="3" stroke-linecap="round" stroke-linejoin="round"/>
<path d="M29.8138 40.1328C27.7631 38.5989 23.6529 36.6573 22.2816 33.9791C20.3937 30.2973 23.2015 26.7543 28.5118 20.085C30.9016 17.0822 34.405 15.3403 37.9698 15.2389C38.4539 15.2254 38.9255 15.0208 39.2966 14.6632L44.271 9.72555C44.4118 9.58893 44.5773 9.48656 44.7554 9.42583C46.5638 8.81616 50.8407 8.07473 55.8885 9.42729C60.9363 10.7798 64.02 13.4935 65.2793 14.9221C65.4034 15.0656 65.495 15.239 65.5475 15.4297L67.5005 22.1609C67.6431 22.656 67.9492 23.0691 68.3618 23.3228C71.3974 25.1959 73.5158 28.1025 74.0867 31.8986C75.7946 40.2885 76.2371 45.2009 72.7585 47.4448C70.2353 49.0763 65.6251 48.7565 63.0829 49.0567" stroke="black" stroke-width="3" stroke-linecap="round" stroke-linejoin="round"/>
<path d="M38.5622 15.7582L47.2238 28.4035C48.4637 30.2124 49.0833 31.1184 50.0313 31.3724C50.9792 31.6264 51.9688 31.1516 53.9498 30.2057L67.7683 23.5839M48.4878 10.5795L47.7679 29.1983M61.7645 14.137L53.0785 30.6213" stroke="black" stroke-width="3" stroke-linecap="round" stroke-linejoin="round"/>
<path d="M25.0831 33.136C25.0831 36.3641 22.4662 38.981 19.238 38.981C16.0099 38.981 13.3929 36.3641 13.3929 33.136C13.3929 29.9078 16.0099 27.2909 19.238 27.2909C22.4662 27.2909 25.0831 29.9078 25.0831 33.136Z" fill="#6319CD" fill-opacity="0.5"/>
<path d="M43.0559 13.0284C43.0559 14.9652 41.4857 16.5354 39.5488 16.5354C37.6119 16.5354 36.0417 14.9652 36.0417 13.0284C36.0417 11.0915 37.6119 9.5213 39.5488 9.5213C41.4857 9.5213 43.0559 11.0915 43.0559 13.0284Z" fill="#BD8EFF" fill-opacity="0.45"/>
<path d="M78.6127 19.9639C78.5892 20.9741 77.8171 21.8121 76.8882 21.8355C75.9592 21.859 75.2251 21.0591 75.2486 20.0489C75.272 19.0387 76.0441 18.2007 76.9731 18.1773C77.902 18.1538 78.6361 18.9538 78.6127 19.9639Z" fill="#C49BFF" fill-opacity="0.35"/>
<path d="M63.5961 39.2327C63.5336 41.9266 61.4747 44.161 58.9974 44.2236C56.5202 44.2861 54.5627 42.153 54.6252 39.4591C54.6877 36.7653 56.7466 34.5308 59.2239 34.4683C61.7011 34.4058 63.6586 36.5389 63.5961 39.2327Z" fill="#6319CD" fill-opacity="0.65"/>
<path d="M72.0434 61.5654C72.0043 63.2491 70.7175 64.6456 69.1692 64.6847C67.6209 64.7238 66.3975 63.3906 66.4366 61.7069C66.4756 60.0233 67.7625 58.6267 69.3107 58.5876C70.859 58.5485 72.0825 59.8817 72.0434 61.5654Z" fill="#230055"/>
<path d="M30.7481 61.4923C30.7481 63.752 28.9162 65.5838 26.6565 65.5838C24.3968 65.5838 22.5649 63.752 22.5649 61.4923C22.5649 59.2326 24.3968 57.4007 26.6565 57.4007C28.9162 57.4007 30.7481 59.2326 30.7481 61.4923Z" fill="#230055" fill-opacity="0.75"/>
<defs>
<filter id="filter0_f_82_66" x="6.5824" y="38.5902" width="79.4233" height="44.5226" filterUnits="userSpaceOnUse" color-interpolation-filters="sRGB">
<feFlood flood-opacity="0" result="BackgroundImageFix"/>
<feBlend mode="normal" in="SourceGraphic" in2="BackgroundImageFix" result="shape"/>
<feGaussianBlur stdDeviation="2" result="effect1_foregroundBlur_82_66"/>
</filter>
</defs>
</svg>
